<?xml version="1.0" encoding="utf-8"?>
<!-- Generator: Adobe Illustrator 24.0.0, SVG Export Plug-In . SVG Version: 6.00 Build 0)  -->
<svg version="1.1" id="Layer_1" xmlns="http://www.w3.org/2000/svg" xmlns:xlink="http://www.w3.org/1999/xlink" x="0px" y="0px"
	 viewBox="0 0 5000 5000" style="enable-background:new 0 0 5000 5000;" xml:space="preserve">
<style type="text/css">
	.st0{fill:#FFFFFF;}
	.st1{font-family:'CenturyGothic-Bold';}
	.st2{font-size:720.4977px;}
	.st3{font-size:744.89px;}
	.st4{display:none;}
	.st5{display:inline;}
	.st6{fill:#C20000;}
	.st7{font-family:'Poppins-Black';}
	.st8{font-size:218.0249px;}
	.st9{fill:#C20000;stroke:#C20000;stroke-width:4;stroke-miterlimit:10;}
	.st10{fill:#231F20;}
	.st11{fill:none;stroke:#000000;stroke-width:85;stroke-miterlimit:10;}
</style>
<g>
	<path class="st0" d="M1375.07,1166.48v2083.07c0,31.84,20.28,60.15,50.43,70.39l811.31,275.54c7.7,2.61,15.77,3.95,23.91,3.95
		h69.54c7.66,0,15.28-1.18,22.58-3.51l816.08-260.13c30.83-9.83,51.76-38.47,51.76-70.83v-2108c0-54.27-56.23-90.21-105.52-67.48
		c-171.73,79.21-518.17,193.86-773.86-15.55c-25.81-21.14-62.5-22.39-89.82-3.25c-107.98,75.66-395.49,227.06-767.55,29.96
		C1434.54,1074.48,1375.07,1110.59,1375.07,1166.48z"/>
	<text transform="matrix(1.2192 0 0 1 1603.0974 2439.8938)" class="st1 st2">U</text>
	<rect x="2501.18" y="1929.59" width="453.16" height="120.84"/>
	<rect x="2503.28" y="2328.29" width="453.16" height="120.84"/>
	<rect x="2679.03" y="2050.43" width="108.16" height="297.99"/>
	<text transform="matrix(1.1663 0 0 1 1622.1697 3225.4465)" class="st1 st3">X</text>
	<g class="st4">
		<text transform="matrix(1 0 0 1 1409.4724 3908.9202)" class="st5"><tspan x="0" y="0" class="st6 st7 st8">D E C O M P E  v </tspan><tspan x="1448.52" y="0" class="st9 st1 st8">4 . 0</tspan></text>
	</g>
	<g>
		<path class="st10" d="M2914.55,2861.3c-3.05-42.64-21.28-80.69-54.18-113.11c-37.36-36.82-80.18-54.71-130.92-54.71
			c-5.23,0-10.61,0.2-16,0.58c-43.33,3.1-84.49,22.08-115.89,53.44c-30.88,30.83-49.65,70.7-52.85,112.27
			c-5.76,74.76,27.31,135.68,98.29,181.09c0.1,2.67-0.04,5.7-0.19,8.66c-0.35,7.07-0.7,14.37,2.05,19.55
			c0.08,0.16,0.18,0.31,0.28,0.46c17.84,25.61,69.75,27.61,85.24,27.61c29.69,0,67.2-6.76,83.45-25.74
			c0.26-0.31,0.48-0.64,0.65-1.01c2.53-5.34,2.24-12.66,1.96-19.75c-0.13-3.17-0.25-6.19-0.13-8.91c5.49-5.46,11.31-8.9,16.94-12.23
			c4.43-2.61,9-5.32,13.27-8.92C2893.44,2981.02,2918.86,2921.48,2914.55,2861.3z M2806.41,2992.2c-4.35,2.85-8.58,5.04-12.67,7.15
			c-15.16,7.86-28.34,14.69-23.3,45.98c-0.02,0-0.04,0.01-0.06,0.01c-5.77,1.27-11.28,2.49-17.35,3.12v-79.56
			c3.27-3.52,8.11-7.2,13.64-11.41c3.45-2.63,7.02-5.34,10.7-8.38c1.13-0.93,2.65-2.05,4.4-3.34c8.28-6.1,19.63-14.46,19.57-24.27
			c-0.06-10.48-10.95-18.99-24.27-18.69c-10.45,0.23-18.31,7.05-25.24,13.07c-1.19,1.03-2.36,2.04-3.5,3
			c-0.92,0.76-2.43,2.23-4.51,4.25c-3,2.92-10.26,9.98-14.07,12.58c-2-1.65-4.89-4.07-6.43-5.35l-1.79-1.49
			c-2.45-2.03-5.01-4.54-7.72-7.19c-9.04-8.84-19.28-18.87-32.72-18.87c-0.22,0-0.43,0-0.65,0.01c-5.78,0.14-11.65,2.52-16.11,6.53
			c-4.37,3.92-6.7,8.89-6.39,13.63c0.51,7.89,10.38,15.55,19.1,22.3c1.77,1.37,3.44,2.67,4.87,3.85c2.76,2.28,6.04,4.42,9.21,6.5
			c6.63,4.34,13.47,8.82,15.29,14.3c2.7,8.15,1.72,4.84,0.78,15.95c-0.48,5.66-0.94,11-0.94,16.17v46.44
			c-6.07-0.64-11.58-1.85-17.35-3.12c-0.37-0.08-0.73-0.16-1.1-0.24c-0.25-4.32,0.07-8.5,0.4-12.56c0.58-7.36,1.13-14.31-2.08-20.52
			c-2.25-4.35-8.38-7.4-14.86-10.64c-1.28-0.64-2.52-1.26-3.65-1.85c-33.78-17.81-74.4-52.81-76.09-118.39
			c-0.98-37.93,12.69-73.4,38.49-99.87c26.39-27.08,62.54-41.99,101.78-41.99c1.51,0,3.01,0.02,4.53,0.06
			c67.33,1.97,126.32,59.02,131.49,127.16C2872.89,2933.88,2837.23,2972.04,2806.41,2992.2z"/>
		<path class="st10" d="M2796.44,3103.39c-2.58-0.67-5.16-1-7.88-1c-6.05,0-11.92,1.67-18.13,3.44c-6.32,1.8-13.48,3.84-22.31,4.58
			c-5.12,0.43-10.63,0.65-16.38,0.65c-12.79,0-25.62-1.08-35.21-2.97c-3.1-0.61-6.07-1.66-9.21-2.76
			c-5.35-1.89-10.88-3.84-17.61-3.84c-2.19,0-4.41,0.22-6.61,0.64c-5.04,0.97-9.45,3.97-12.42,8.44
			c-3.02,4.54-4.23,10.08-3.23,14.82c3.68,17.52,44.87,22.46,69.09,23.86c3.32,0.19,6.98,0.29,10.88,0.29
			c0.8,0,79.2-0.28,84.39-24.11C2814.09,3114.89,2808.21,3106.45,2796.44,3103.39z"/>
		<path class="st10" d="M2763.71,3157.05l-0.27-0.08c-1.79-0.56-3.94-0.83-6.59-0.83c-3.53,0-7.62,0.47-11.95,0.97
			c-4.78,0.55-9.72,1.12-14.54,1.16l-0.48,0c-3.86,0-8.19-0.35-12.37-0.69c-4.38-0.36-8.91-0.73-13.17-0.73
			c-6.02,0-14.65,0.66-20.12,6.33c-3.68,3.82-5.41,9.33-5.15,16.4c0.79,21.18,26.04,23.28,34.35,23.97
			c7.66,0.64,14.32,0.95,20.36,0.95c29.31,0,44.93-7.79,46.42-23.14C2781.99,3162.74,2768.71,3158.61,2763.71,3157.05z"/>
	</g>
	<path class="st10" d="M2735.08,2764.18c1.8-2.39,4.75-3.82,7.95-3.51c20.96,2,41,9.78,57.93,22.5c12.4,9.31,22.6,20.77,30.32,34.05
		c7.46,12.83,12.31,26.83,14.41,41.61c2.1,14.77,1.35,29.57-2.24,43.98c-1.18,4.76-6,7.66-10.76,6.47s-7.66-6-6.47-10.76
		c3.03-12.18,3.67-24.69,1.89-37.18c-1.78-12.5-5.88-24.34-12.18-35.18c-6.52-11.21-15.14-20.89-25.63-28.77
		c-14.32-10.76-31.25-17.33-48.96-19.02c-4.88-0.47-8.46-4.8-8-9.68C2733.51,2766.97,2734.13,2765.44,2735.08,2764.18z"/>
	<path class="st0" d="M2633.7,2859.94c2.75,0.69,166.85,24.72,166.85,24.72s22.66,46.69,20.6,46.69s-48.75,48.75-48.75,48.75
		s-19.36,54.24-19.36,54.24c1.42,3.16,3.24,6.5,4.04,9.88c1.21,5.14-2.78,4.24-7.17,4.24c-6.98,0-13.96,0-20.95,0
		c-7.26,0-14.51,0-21.77,0c-2.41,0-7.08,0.92-8.88-0.95c-2.72-2.81-0.08-11.24,0.3-14.63c0.75-6.72,1.5-13.44,2.25-20.16
		c0.96-8.59,1.92-17.17,2.88-25.76l-30.21-19.23l-39.82-66.6V2859.94z"/>
	<rect x="2264.99" y="1841.7" class="st10" width="85.14" height="1450.12"/>
	<rect x="1567.39" y="2528.31" class="st10" width="1480.33" height="79.65"/>
	<path class="st6" d="M1836.6,1401.07l40.24,81.54c1.79,3.63,5.26,6.15,9.27,6.73l89.99,13.08c10.1,1.47,14.13,13.87,6.82,20.99
		l-65.12,63.47c-2.9,2.83-4.22,6.9-3.54,10.89l15.37,89.63c1.72,10.06-8.83,17.72-17.86,12.98l-80.49-42.32
		c-3.59-1.89-7.87-1.89-11.46,0l-80.49,42.32c-9.03,4.75-19.58-2.92-17.86-12.98l15.37-89.63c0.68-3.99-0.64-8.07-3.54-10.89
		l-65.12-63.47c-7.31-7.12-3.27-19.53,6.82-20.99l89.99-13.08c4.01-0.58,7.47-3.1,9.27-6.73l40.24-81.54
		C1819.04,1391.92,1832.08,1391.92,1836.6,1401.07z"/>
	<path class="st6" d="M2308.91,1401.07l40.24,81.54c1.79,3.63,5.26,6.15,9.27,6.73l89.99,13.08c10.1,1.47,14.13,13.87,6.82,20.99
		l-65.12,63.47c-2.9,2.83-4.22,6.9-3.54,10.89l15.37,89.63c1.72,10.06-8.83,17.72-17.86,12.98l-80.49-42.32
		c-3.59-1.89-7.87-1.89-11.46,0l-80.49,42.32c-9.03,4.75-19.58-2.92-17.86-12.98l15.37-89.63c0.68-3.99-0.64-8.07-3.54-10.89
		l-65.12-63.47c-7.31-7.12-3.27-19.53,6.82-20.99l89.99-13.08c4.01-0.58,7.47-3.1,9.27-6.73l40.24-81.54
		C2291.35,1391.92,2304.39,1391.92,2308.91,1401.07z"/>
	<path class="st6" d="M2798.23,1401.07l40.24,81.54c1.79,3.63,5.26,6.15,9.27,6.73l89.99,13.08c10.1,1.47,14.13,13.87,6.82,20.99
		l-65.12,63.47c-2.9,2.83-4.22,6.9-3.54,10.89l15.37,89.63c1.72,10.06-8.83,17.72-17.86,12.98l-80.49-42.32
		c-3.59-1.89-7.87-1.89-11.46,0l-80.49,42.32c-9.03,4.75-19.58-2.92-17.86-12.98l15.37-89.63c0.68-3.99-0.64-8.07-3.54-10.89
		l-65.12-63.47c-7.31-7.12-3.27-19.53,6.82-20.99l89.99-13.08c4.01-0.58,7.47-3.1,9.27-6.73l40.24-81.54
		C2780.67,1391.92,2793.72,1391.92,2798.23,1401.07z"/>
	<path class="st11" d="M1383.38,1166.48v2083.07c0,31.84,20.28,60.15,50.43,70.39l811.31,275.54c7.7,2.61,15.77,3.95,23.91,3.95
		h69.54c7.66,0,15.28-1.18,22.58-3.51l816.08-260.13c30.83-9.83,51.76-38.47,51.76-70.83v-2108c0-54.27-56.23-90.21-105.52-67.48
		c-171.73,79.21-518.17,193.86-773.86-15.55c-25.81-21.14-62.5-22.39-89.82-3.25c-107.98,75.66-395.49,227.06-767.55,29.96
		C1442.85,1074.48,1383.38,1110.59,1383.38,1166.48z"/>
</g>
</svg>
